<svg width="24" height="24" viewBox="0 0 24 24" fill="none" xmlns="http://www.w3.org/2000/svg">
<g clip-path="url(#clip0_2266_27607)">
<path d="M21.2937 23.0125H5.29944C4.6295 23.0125 3.987 22.7464 3.51329 22.2727C3.03957 21.7989 2.77344 21.1564 2.77344 20.4865C2.77344 19.8166 3.03957 19.1741 3.51329 18.7004C3.987 18.2266 4.6295 17.9605 5.29944 17.9605H19.6103M19.6103 17.9605C20.0568 17.9605 20.485 17.7831 20.8007 17.4674C21.1164 17.1517 21.2937 16.7236 21.2937 16.2771V2.80794C21.2937 2.36147 21.1164 1.93328 20.8007 1.61758C20.485 1.30187 20.0568 1.12451 19.6103 1.12451H5.29944C4.64145 1.12473 4.00953 1.38177 3.53822 1.84091C3.06691 2.30006 2.79343 2.92504 2.77601 3.5828V20.4188M19.6103 17.9605V23.0125" stroke="#8B96A5" stroke-linecap="round" stroke-linejoin="round"/>
<path d="M12.8979 14.1188C13.4685 14.3605 14.1013 14.4141 14.7044 14.272C15.3076 14.1299 15.8499 13.7995 16.2527 13.3286L16.6744 12.9051C16.8585 12.7577 16.9785 12.5447 17.0091 12.3108C17.0398 12.0769 16.9789 11.8402 16.839 11.6503L15.4744 10.2874C15.2847 10.1474 15.0481 10.0861 14.8142 10.1165C14.5804 10.1468 14.3673 10.2664 14.2196 10.4503C14.0719 10.6336 13.8592 10.7529 13.6257 10.7833C13.3922 10.8136 13.1561 10.7527 12.9664 10.6131L10.7824 8.43428C10.6424 8.24452 10.5811 8.00797 10.6115 7.77409C10.6418 7.54022 10.7614 7.32714 10.9453 7.17942C11.1294 7.03195 11.2493 6.81898 11.28 6.5851C11.3107 6.35121 11.2497 6.11452 11.1099 5.92456L9.74528 4.55999C9.55532 4.42014 9.31864 4.35917 9.08475 4.38984C8.85086 4.42051 8.6379 4.54045 8.49043 4.72456L8.07043 5.14285C7.60098 5.54671 7.27149 6.08887 7.12921 6.69156C6.98692 7.29426 7.03916 7.92653 7.27843 8.4977C8.66138 10.8041 10.5914 12.7342 12.8979 14.1171V14.1188Z" stroke="#8B96A5" stroke-linecap="round" stroke-linejoin="round"/>
</g>
<defs>
<clipPath id="clip0_2266_27607">
<rect width="24" height="24" fill="white"/>
</clipPath>
</defs>
</svg>
