<svg width="33" height="30" viewBox="0 0 25 23" fill="none" xmlns="http://www.w3.org/2000/svg">
<path d="M4.17424 11.7664H1.75781L12.6317 1.69531L23.5056 11.7664H21.0892M4.17424 11.7664V19.5995C4.17424 20.193 4.42883 20.7623 4.88199 21.182C5.33516 21.6017 5.94979 21.8375 6.59066 21.8375H18.6728C19.3137 21.8375 19.9283 21.6017 20.3815 21.182C20.8346 20.7623 21.0892 20.193 21.0892 19.5995V11.7664" stroke="#8b96a5" stroke-width="2" stroke-linecap="round" stroke-linejoin="round"/>
<path d="M9.0061 21.8368V15.1228C9.0061 14.5292 9.26069 13.96 9.71386 13.5403C10.167 13.1206 10.7817 12.8848 11.4225 12.8848H13.839C14.4798 12.8848 15.0945 13.1206 15.5476 13.5403C16.0008 13.96 16.2554 14.5292 16.2554 15.1228V21.8368" stroke="#8b96a5" stroke-width="2" stroke-linecap="round" stroke-linejoin="round"/>
</svg>
