<svg width="13" height="10" viewBox="0 0 13 10" fill="none" xmlns="http://www.w3.org/2000/svg">
<path d="M8.60495 0.136194V0.134033H9.16762L9.37321 0.175094C9.51027 0.201752 9.63471 0.236686 9.74652 0.279909C9.85834 0.323131 9.96654 0.373561 10.0711 0.431187C10.1757 0.488814 10.2706 0.547531 10.3557 0.607319C10.4401 0.666393 10.5159 0.729065 10.583 0.795336C10.6493 0.862331 10.7528 0.87962 10.8935 0.847203C11.0342 0.814786 11.1857 0.769759 11.348 0.712133C11.5103 0.654507 11.6708 0.589673 11.8295 0.517632C11.9882 0.445591 12.0849 0.399851 12.1195 0.380401C12.1534 0.360238 12.1714 0.349432 12.1736 0.347984L12.1757 0.344742L12.1866 0.33934L12.1974 0.333937L12.2082 0.328534L12.219 0.323131L12.2212 0.31989L12.2244 0.317728L12.2277 0.315567L12.2298 0.312326L12.2407 0.309084L12.2515 0.306923L12.2493 0.323131L12.2461 0.33934L12.2407 0.355548L12.2352 0.371756L12.2298 0.382562L12.2244 0.393368L12.219 0.409576C12.2154 0.420382 12.2118 0.434786 12.2082 0.452799C12.2046 0.470811 12.1703 0.542842 12.1054 0.668911C12.0405 0.79498 11.9593 0.922842 11.8619 1.05251C11.7646 1.18218 11.6773 1.28014 11.6001 1.34642C11.5222 1.41342 11.4706 1.46024 11.4453 1.48689C11.4201 1.51427 11.3894 1.53947 11.3534 1.56253L11.2993 1.59819L11.2884 1.6036L11.2776 1.609L11.2755 1.61224L11.2722 1.6144L11.269 1.61656L11.2668 1.6198L11.256 1.62521L11.2452 1.63061L11.243 1.63385L11.2398 1.63601L11.2365 1.63817L11.2343 1.64141L11.2322 1.64466L11.2289 1.64682L11.2257 1.64898L11.2235 1.65222H11.2776L11.5806 1.58739C11.7826 1.54416 11.9756 1.49194 12.1595 1.43071L12.4517 1.33346L12.4841 1.32265L12.5003 1.31725L12.5112 1.31184L12.522 1.30644L12.5328 1.30104L12.5436 1.29564L12.5653 1.29239L12.5869 1.29023V1.31184L12.5815 1.31401L12.5761 1.31725L12.5739 1.32049L12.5707 1.32265L12.5674 1.32481L12.5653 1.32805L12.5631 1.33129L12.5599 1.33346L12.5566 1.33562L12.5545 1.33886L12.5523 1.3421L12.549 1.34426L12.5436 1.35507L12.5382 1.36587L12.535 1.36803C12.5335 1.37019 12.4877 1.43142 12.3976 1.55173C12.3074 1.67275 12.2587 1.73398 12.2515 1.73542C12.2443 1.73758 12.2342 1.74839 12.2212 1.76784C12.2089 1.788 12.1325 1.86833 11.9918 2.00881C11.8511 2.14928 11.7133 2.27426 11.5784 2.38376C11.4428 2.49398 11.3743 2.6294 11.3729 2.79005C11.3707 2.94997 11.3624 3.13079 11.348 3.33249C11.3335 3.5342 11.3065 3.75211 11.2668 3.98623C11.2271 4.22036 11.1658 4.48509 11.0829 4.78044C10.9999 5.07579 10.8989 5.36395 10.7799 5.64489C10.6609 5.92584 10.5364 6.17796 10.4066 6.40128C10.2767 6.6246 10.1577 6.8137 10.0495 6.96858C9.94129 7.12345 9.83129 7.26933 9.71947 7.4062C9.60766 7.54308 9.46628 7.69724 9.29531 7.86868C9.12362 8.03941 9.02985 8.13307 9.01398 8.14963C8.99739 8.16548 8.9267 8.22456 8.80188 8.32684C8.67781 8.42985 8.54435 8.53286 8.40152 8.63588C8.25942 8.73818 8.12884 8.82354 8.00982 8.89198C7.89079 8.96041 7.74725 9.03856 7.57916 9.12646C7.41181 9.21506 7.23074 9.29719 7.03597 9.37282C6.8412 9.44846 6.63561 9.5187 6.4192 9.58353C6.20278 9.64837 5.99359 9.6988 5.7916 9.73481C5.58963 9.77083 5.36059 9.80145 5.1045 9.82666L4.72037 9.86448V9.86988H4.01703V9.86448L3.92506 9.85908C3.86375 9.85548 3.81325 9.85187 3.77357 9.84827C3.7339 9.84467 3.58421 9.82486 3.32452 9.78884C3.06482 9.75283 2.86104 9.7168 2.71315 9.68078C2.56528 9.64477 2.34525 9.57633 2.0531 9.47548C1.76094 9.37463 1.51099 9.27269 1.30324 9.16968C1.09621 9.06738 0.966359 9.00255 0.913695 8.97518C0.861756 8.94852 0.803325 8.91539 0.738402 8.87577L0.641017 8.81634L0.638864 8.81309L0.635607 8.81093L0.63236 8.80877L0.630196 8.80553L0.619376 8.80013L0.608555 8.79472L0.606402 8.79148L0.603145 8.78932L0.599899 8.78716L0.597735 8.78392L0.595581 8.78068L0.592324 8.77852H0.586914V8.75691L0.597735 8.75907L0.608555 8.76231L0.657248 8.76771C0.689709 8.77131 0.778081 8.77671 0.922351 8.78392C1.06663 8.79113 1.21992 8.79113 1.38223 8.78392C1.54453 8.77671 1.71046 8.7605 1.87997 8.73529C2.0495 8.71008 2.24968 8.66686 2.48051 8.60563C2.71136 8.54439 2.92344 8.47164 3.11677 8.38735C3.30938 8.30236 3.44643 8.23896 3.52795 8.19718C3.60874 8.15611 3.73209 8.07975 3.89801 7.9681L4.14688 7.80061L4.14904 7.79737L4.15229 7.79521L4.15555 7.79305L4.1577 7.7898L4.15986 7.78656L4.16311 7.7844L4.16637 7.78224L4.16852 7.779L4.17934 7.77576L4.19016 7.7736L4.19232 7.76279L4.19557 7.75198L4.19883 7.74982L4.20098 7.74658L4.11442 7.74118C4.05671 7.73758 4.0008 7.73397 3.9467 7.73037C3.89259 7.72677 3.80784 7.71057 3.69241 7.68175C3.577 7.65293 3.45257 7.60971 3.31911 7.55208C3.18566 7.49445 3.05581 7.42601 2.92957 7.34677C2.80333 7.26754 2.71207 7.20161 2.6558 7.14903C2.60026 7.09715 2.52812 7.02369 2.43939 6.9286C2.35139 6.83279 2.27492 6.73445 2.21 6.6336C2.14507 6.53276 2.08304 6.4164 2.0239 6.28458L1.93407 6.08792L1.92866 6.07171L1.92325 6.0555L1.92001 6.0447L1.91784 6.03389L1.93407 6.03605L1.9503 6.0393L2.06933 6.0555C2.14869 6.06631 2.27313 6.06991 2.44264 6.06631C2.61217 6.06271 2.72938 6.0555 2.79431 6.0447C2.85923 6.03389 2.89891 6.02669 2.91333 6.02309L2.93498 6.01768L2.96203 6.01228L2.98908 6.00688L2.99124 6.00364L2.99449 6.00148L2.99775 5.99931L2.9999 5.99607L2.97826 5.99067L2.95662 5.98527L2.93498 5.97987L2.91333 5.97446L2.89169 5.96906C2.87727 5.96546 2.85203 5.95825 2.81595 5.94745C2.77988 5.93664 2.6825 5.89702 2.52379 5.82859C2.3651 5.76015 2.23886 5.69352 2.14507 5.62868C2.05106 5.56366 1.96142 5.49255 1.87672 5.41581C1.79232 5.33801 1.69964 5.23788 1.59864 5.11542C1.49765 4.99296 1.40748 4.85068 1.32812 4.6886C1.24878 4.52651 1.18926 4.37163 1.14958 4.22395C1.11006 4.07714 1.08399 3.92705 1.07169 3.77552L1.0522 3.5486L1.06302 3.55077L1.07384 3.55401L1.08466 3.55941L1.09548 3.56481L1.1063 3.57022L1.11712 3.57562L1.28484 3.65126C1.39666 3.70169 1.53552 3.74491 1.70143 3.78092C1.86735 3.81694 1.96654 3.83676 1.999 3.84036L2.04769 3.84576H2.14507L2.14292 3.84252L2.13966 3.84036L2.13642 3.83819L2.13425 3.83495L2.1321 3.83171L2.12884 3.82955L2.1256 3.82739L2.12343 3.82415L2.11261 3.81874L2.10179 3.81334L2.09964 3.8101L2.09638 3.80794L2.09314 3.80578L2.09097 3.80254L2.08015 3.79713L2.06933 3.79173L2.06718 3.78849C2.06501 3.78704 2.03399 3.76399 1.97411 3.71933C1.91495 3.67395 1.85292 3.61524 1.788 3.5432C1.72307 3.47116 1.65815 3.39552 1.59323 3.31628C1.52818 3.23686 1.47025 3.15189 1.4201 3.06235C1.36961 2.97231 1.31622 2.85776 1.25995 2.71873C1.20441 2.58042 1.16221 2.44103 1.13335 2.30056C1.1045 2.16008 1.08827 2.02142 1.08466 1.88454C1.08106 1.74767 1.08466 1.63061 1.09548 1.53336C1.1063 1.43611 1.12794 1.32625 1.1604 1.20379C1.19287 1.08133 1.23976 0.951661 1.30107 0.814786L1.39305 0.60948L1.39846 0.593271L1.40387 0.577063L1.40712 0.574902L1.40928 0.57166L1.41144 0.568419L1.41469 0.566257L1.41794 0.568419L1.4201 0.57166L1.42226 0.574902L1.42551 0.577063L1.42876 0.579224L1.43092 0.582466L1.43308 0.585707L1.43633 0.587869L1.44174 0.598674L1.44715 0.60948L1.45041 0.611641L1.45256 0.614883L1.59864 0.776967C1.69602 0.885023 1.81144 1.00569 1.94489 1.13895C2.07836 1.27222 2.15229 1.34138 2.16672 1.34642C2.18115 1.35218 2.19918 1.36875 2.22082 1.39613C2.24246 1.42279 2.3146 1.48654 2.43723 1.58739C2.55987 1.68824 2.72037 1.8053 2.91874 1.93857C3.11713 2.07183 3.33714 2.20331 3.5788 2.33297C3.82047 2.46264 4.08016 2.5797 4.35788 2.68416C4.63561 2.78861 4.83038 2.85705 4.94219 2.88946C5.05401 2.92188 5.24516 2.9633 5.51568 3.01373C5.78619 3.06416 5.98999 3.09657 6.12704 3.11098C6.2641 3.12538 6.35789 3.13367 6.40837 3.13583L6.48412 3.13799L6.48197 3.12178L6.47871 3.10557L6.45707 2.9705C6.44264 2.88046 6.43543 2.75439 6.43543 2.59231C6.43543 2.43022 6.44805 2.28075 6.4733 2.14388C6.49855 2.007 6.53643 1.86833 6.58691 1.72786C6.63741 1.58739 6.68683 1.47464 6.73516 1.38964C6.78422 1.30536 6.84841 1.20919 6.92776 1.10113C7.00712 0.993079 7.10992 0.881424 7.23615 0.766161C7.36239 0.650898 7.50666 0.548244 7.66897 0.458201C7.83128 0.368158 7.98097 0.299716 8.11802 0.252895C8.25509 0.206074 8.37051 0.175451 8.46428 0.161047C8.55806 0.146643 8.60495 0.138355 8.60495 0.136194Z" fill="#555555"/>
</svg>
